<svg xmlns="http://www.w3.org/2000/svg" viewBox="0 0 335.83 239.62"><g id="Calque_2" data-name="Calque 2"><g id="Calque_1-2" data-name="Calque 1"><path d="M168.48.11c15.75,0,31.51.22,47.25,0,46.55-.79,89.62,30,104,75.58,3.89,12.34,5.12,25.57,7.07,38.46,2.88,19.08,4.8,38.32,8.07,57.32,5.74,33.36-13.57,61.59-46.83,67.36a54.8,54.8,0,0,1-58.48-29.2c-6.66-12.82-13.06-25.78-19.42-38.76-1.09-2.21-2.25-3.06-4.78-3q-37.5.15-75,0c-2.56,0-3.68.92-4.75,3.11-6,12.3-12.25,24.51-18.38,36.76C97.52,227,82,238.08,60.34,239.33,29.16,241.15-.39,218.48,0,184.4c.15-12.64,2.14-25.3,3.81-37.88,2.4-18,5.21-36,8-53.93C18.48,49,50.41,14.08,93.82,3.3a112.33,112.33,0,0,1,24-3C134.72-.21,151.61.11,168.48.11Zm-1.28,24c-16,0-32-.2-48,0-26.69.41-48.46,11.22-65.51,31.64-12.57,15.07-17.28,33-19.5,52-2.47,21.14-5.78,42.19-8.57,63.29-.91,6.85-2.69,13.65-.68,20.71a33.48,33.48,0,0,0,28.21,24c14.46,1.6,25.52-4.37,32.15-17.5q11.7-23.19,23.25-46.45c2.72-5.5,6.73-8,13.06-8q46.32.28,92.63,0c6.72,0,11,2.78,13.87,8.69,7.52,15.31,15.21,30.54,22.93,45.75,7.41,14.59,21.76,20.76,37.38,16,16.94-5.18,24.82-19.6,23.14-32.25-3.88-29.11-8.43-58.13-13.23-87.1-6.92-41.8-41.45-70.74-83.88-70.83C198.7,24,183,24.06,167.2,24.06Z"/><path d="M119.83,72c4.41,0,8.38,0,12.35,0,7.08.09,11.61,4.71,11.65,11.8,0,7.35-4.45,12-11.69,12.13-4,0-7.94,0-12.31,0,0,4.26,0,8.21,0,12.16-.08,7.29-4.71,11.81-12,11.8s-11.89-4.54-12-11.86c0-3.85,0-7.71,0-12.1-4,0-7.8,0-11.62,0-7.88,0-12.43-4.53-12.38-12.2C71.88,76.38,76.48,72,84.27,72H95.83c0-4.26,0-8.21,0-12.15.07-7.31,4.68-11.82,12-11.81s11.9,4.53,12,11.85C119.86,63.73,119.83,67.58,119.83,72Z"/><path d="M215.86,59.76c0-7.19,4.73-11.74,12-11.73s12,4.71,11.95,12.21C239.79,67.56,235,72.09,227.42,72,220.3,71.88,215.8,67.13,215.86,59.76Z"/><path d="M191.85,83.64C191.92,76.48,196.63,72,204,72s11.94,4.76,11.87,12.29c-.08,7.15-4.8,11.69-12.14,11.66S191.78,91.18,191.85,83.64Z"/><path d="M252,72c7.22,0,11.82,4.69,11.82,12s-4.68,12-12.17,12-11.9-4.78-11.82-12.34C239.94,76.46,244.66,72,252,72Z"/><path d="M215.86,107.72c0-7.2,4.71-11.77,12-11.77s12,4.69,12,12.18c0,7.32-4.83,11.87-12.39,11.77C220.32,119.81,215.81,115.07,215.86,107.72Z"/></g></g></svg>