<svg xmlns="http://www.w3.org/2000/svg" viewBox="0 0 238.27 280.33"><g id="Calque_2" data-name="Calque 2"><g id="Calque_1-2" data-name="Calque 1"><path d="M202.05,0c10,2.91,19,7.18,26.08,15.34,12.94,15.06,13.8,39.43.86,55.1-34.08,41.31-67.57,83.11-101.37,124.65a7.34,7.34,0,0,0-1.57,7.17c5,22.12.47,41.3-18.15,55.7-8.2,6.34-17.8,8.74-27.95,8.92-11.1.19-22.21-.25-33.3.09-8.4.26-15.64,3.9-22,9.42-8,6.95-16.2,4.5-18.66-5.7C1.52,252-1.37,233.29.66,213.88c3.08-29.51,24.22-52.49,53.4-56.86,1.48-.22,3-1,4.4-.71,7.81,1.37,11.29-3.45,15-9.21,11.61-18,23.7-35.75,35.6-53.6C123.18,72.35,137.62,51.42,151.25,30c8.88-14,18.92-26,35.85-30ZM116.64,118.52l29.63,22c22.76-27.9,45.18-55.26,67.43-82.76,4.8-5.92,5.71-13,3.68-20.31-2.79-10-9.76-15.76-19.82-17.11-9.32-1.26-17,2.54-22.27,10.28-8.36,12.18-16.44,24.56-24.64,36.86C139.42,84.32,128.2,101.17,116.64,118.52Zm-94,133.66c7.05-1.82,13.5-4.34,20.13-5,9.52-.94,19.17-.6,28.77-.62,8.13,0,16.34.49,23.56-4.27,10.4-6.86,14.79-19.5,11.92-33.06a15,15,0,0,0-6.46-10c-7.92-5.46-15.9-11-23.11-17.28-6.11-5.35-12.29-6.63-20-5.07-17.62,3.55-29.93,12.82-34.77,30.69C18.6,222.54,20,237.52,22.64,252.18Zm89.22-69.62,21.53-26.37-28-20.8L86.53,163.68Z"/></g></g></svg>