<svg xmlns="http://www.w3.org/2000/svg" viewBox="0 0 258.9 254.67"><defs><style>.cls-1{fill:#fff;}</style></defs><g id="Calque_2" data-name="Calque 2"><g id="Calque_1-2" data-name="Calque 1"><path class="cls-1" d="M127.37,127.59V84.11c0-5.82,0-11.63,0-17.45,0-3.65-1.68-5.24-5.35-5a64.58,64.58,0,0,0-6.74.93,65.66,65.66,0,0,0-52.82,76.66C68,168.61,91.19,189.7,120.75,193c5,.55,6.62-.9,6.62-6Zm8.74-17.9c1,0,1.7.12,2.45.12q31.09,0,62.19,0c8.95,0,14.23-5.32,14.28-14.32q.06-9.74,0-19.46a2.77,2.77,0,0,1,1.73-2.91c4.81-2.53,7.68-7.82,7.12-12.67-.77-6.63-5.56-11.48-11.93-12.07a13.14,13.14,0,0,0-7.27,24.82,2.57,2.57,0,0,1,1.61,2.7c-.06,6.24,0,12.47,0,18.71,0,5.08-1.35,6.41-6.47,6.41H136.11Zm0,44h64.24c4.25,0,5.83,1.55,5.84,5.76,0,6.41,0,12.81,0,19.22a2.75,2.75,0,0,1-1.7,2.89,12.51,12.51,0,0,0-7.13,12.39A12.92,12.92,0,0,0,209,206.27a13.13,13.13,0,0,0,7.62-24.74,2.77,2.77,0,0,1-1.62-3c0-6.32-.21-12.65.07-19,.4-8.8-6-14.92-14.7-14.81-20.48.24-41,.08-61.43.08h-2.81Zm0-21.83h3.25q45.73,0,91.46,0c1.63,0,2.63.25,3.51,1.94a12.84,12.84,0,0,0,14.59,6.34,13.18,13.18,0,0,0,0-25.57,12.86,12.86,0,0,0-14.57,6.4c-.88,1.68-1.88,2-3.51,2q-45.85-.06-91.71,0h-3Zm0-57.1c6.83,0,13.49-.29,20.11.08,7.72.42,15.3-4.81,15.05-15.07-.19-7.74,0-15.5-.07-23.25A2.79,2.79,0,0,1,173,33.58a12.64,12.64,0,0,0,7-11A13.22,13.22,0,1,0,160.4,33.55c1,.56,2,.8,2,2.43-.11,8.34,0,16.68-.07,25,0,3.09-1.6,4.69-4.65,4.76-3.37.07-6.74,0-10.11,0-3.77,0-7.53,0-11.41,0Zm0,114.08c1,0,1.77.11,2.59.11,6.07,0,12.14,0,18.2,0,3.86,0,5.37,1.49,5.37,5.31,0,8,0,16,.05,24a2.73,2.73,0,0,1-1.79,2.82,13.12,13.12,0,0,0-6.64,15,13.21,13.21,0,0,0,25.54.19,12.92,12.92,0,0,0-6.38-15,3.18,3.18,0,0,1-1.87-3.35c.06-7.92.08-15.84,0-23.76-.06-7.54-4.64-13.52-11.54-14-7.78-.5-15.61-.12-23.54-.12Zm0-96.53c.85,0,1.43.09,2,.09q20.22,0,40.44,0a8.37,8.37,0,0,0,3.19-.54,4.26,4.26,0,0,0,1-7.26,7.23,7.23,0,0,0-4-1.13c-13.48-.08-27,0-40.44,0-.72,0-1.44.09-2.19.14Zm0,79c14.77,0,29.24,0,43.72,0a4.82,4.82,0,0,0,1.7-.38,4.09,4.09,0,0,0,2.77-4.12,4,4,0,0,0-2.87-4,9.9,9.9,0,0,0-3-.4q-20,0-39.92,0h-2.43Z"/><path d="M0,118.74a27.13,27.13,0,0,0,.51-2.69,7.84,7.84,0,0,1,6.73-7.42c5-.88,9.93-1.72,14.92-2.47a2.28,2.28,0,0,0,2.31-2A105.67,105.67,0,0,1,38.18,71,3.13,3.13,0,0,0,38,68.17c-2.64-3.91-5.46-7.69-8.2-11.53-3.12-4.36-3.15-7.87.54-11.82,4.77-5.1,9.74-10,14.85-14.79,3.52-3.29,7-3.25,11-.46S64.07,35.08,67.9,38a2.47,2.47,0,0,0,3.33.18,98.25,98.25,0,0,1,32.66-13.55,2.58,2.58,0,0,0,2.24-2.51c.69-4.57,1.44-9.13,2.14-13.7.78-5.13,3.58-7.68,8.77-8,1.68-.09,3.35-.36,5-.41,3.19-.09,5.24,1.67,5.26,4.8q.1,17.19,0,34.38c0,2.89-1.52,4.55-4.46,4.8-8.75.74-17.38,2.15-25.52,5.54C68.06,61.76,49.93,83.39,45,114.87a82.89,82.89,0,0,0,66.08,94.25c3.86.77,7.83,1,11.75,1.52,3.06.42,4.48,2,4.49,5q.06,16.94,0,33.88c0,3.44-2,5.27-5.47,5.1a62.24,62.24,0,0,1-6.54-.55c-4-.61-6.33-3.22-7-7.52-.74-4.57-1.48-9.13-2.12-13.71a3,3,0,0,0-2.76-2.9,97.33,97.33,0,0,1-31.74-13.15,3.1,3.1,0,0,0-4.19.14c-3.75,2.86-7.62,5.57-11.48,8.27s-7.42,2.61-10.8-.58c-5.08-4.79-10.07-9.7-14.85-14.79-3.69-3.93-3.68-7.42-.55-11.81,2.68-3.78,5.36-7.55,8.11-11.28a2.47,2.47,0,0,0,.22-3.31,98.27,98.27,0,0,1-13.51-32.4c-.39-1.77-1.17-2.39-3-2.62-4.58-.59-9.14-1.42-13.68-2.28-5-.93-7.06-3.34-7.5-8.34a11.06,11.06,0,0,0-.49-1.9Z"/><path d="M127.37,127.59V187c0,5.05-1.62,6.5-6.62,6-29.56-3.26-52.79-24.35-58.3-53.7A65.66,65.66,0,0,1,115.27,62.6a64.58,64.58,0,0,1,6.74-.93c3.67-.25,5.33,1.34,5.35,5,0,5.82,0,11.63,0,17.45Z"/><path d="M136.11,109.69V101h63.66c5.12,0,6.47-1.33,6.47-6.41,0-6.24,0-12.47,0-18.71a2.57,2.57,0,0,0-1.61-2.7,13.14,13.14,0,0,1,7.27-24.82c6.37.59,11.16,5.44,11.93,12.07.56,4.85-2.31,10.14-7.12,12.67A2.77,2.77,0,0,0,215,76q.09,9.74,0,19.46c-.05,9-5.33,14.31-14.28,14.32q-31.09,0-62.19,0C137.81,109.81,137.07,109.74,136.11,109.69Z"/><path d="M136.15,153.66v-8.79H139c20.47,0,40.95.16,61.43-.08,8.68-.11,15.1,6,14.7,14.81-.28,6.31,0,12.64-.07,19a2.77,2.77,0,0,0,1.62,3,13.16,13.16,0,1,1-19.2,12.4,12.51,12.51,0,0,1,7.13-12.39,2.75,2.75,0,0,0,1.7-2.89c-.06-6.41,0-12.81,0-19.22,0-4.21-1.59-5.76-5.84-5.76H136.15Z"/><path d="M136.11,131.83v-9h3q45.85,0,91.71,0c1.63,0,2.63-.27,3.51-2a12.86,12.86,0,0,1,14.57-6.4,13.18,13.18,0,0,1,0,25.57,12.84,12.84,0,0,1-14.59-6.34c-.88-1.69-1.88-1.94-3.51-1.94q-45.73,0-91.46,0Z"/><path d="M136.14,74.73v-9c3.88,0,7.64,0,11.41,0,3.37,0,6.74,0,10.11,0,3.05-.07,4.64-1.67,4.65-4.76.05-8.34,0-16.68.07-25,0-1.63-1-1.87-2-2.43A13.22,13.22,0,1,1,180,22.61a12.64,12.64,0,0,1-7,11,2.79,2.79,0,0,0-1.72,2.91c.06,7.75-.12,15.51.07,23.25C171.55,70,164,75.23,156.25,74.81,149.63,74.44,143,74.73,136.14,74.73Z"/><path d="M136.16,188.81V180c7.93,0,15.76-.38,23.54.12,6.9.44,11.48,6.42,11.54,14,.07,7.92,0,15.84,0,23.76a3.18,3.18,0,0,0,1.87,3.35,12.92,12.92,0,0,1,6.38,15,13.21,13.21,0,0,1-25.54-.19,13.12,13.12,0,0,1,6.64-15,2.73,2.73,0,0,0,1.79-2.82c-.08-8,0-16-.05-24,0-3.82-1.51-5.3-5.37-5.31-6.06,0-12.13,0-18.2,0C137.93,188.92,137.11,188.85,136.16,188.81Z"/><path d="M136.12,92.28V83.52c.75,0,1.47-.14,2.19-.14,13.48,0,27,0,40.44,0a7.23,7.23,0,0,1,4,1.13,4.26,4.26,0,0,1-1,7.26,8.37,8.37,0,0,1-3.19.54q-20.22,0-40.44,0C137.55,92.37,137,92.32,136.12,92.28Z"/><path d="M136.13,171.3v-9h2.43q20,0,39.92,0a9.9,9.9,0,0,1,3,.4,4,4,0,0,1,2.87,4,4.09,4.09,0,0,1-2.77,4.12,4.82,4.82,0,0,1-1.7.38C165.37,171.3,150.9,171.3,136.13,171.3Z"/></g></g></svg>